<svg xmlns="http://www.w3.org/2000/svg" width="88" height="88" fill="none"><g fill="#1C1C1C" clip-path="url(#a)"><path fill-rule="evenodd" d="M66.947 49.541V35.606a2.54 2.54 0 0 0-1.292-2.206L21.201 8.395V5.839c0-.97 1.05-1.578 1.897-1.103l46.739 26.299a2.527 2.527 0 0 1 1.292 2.206v16.49c0 .97-1.05 1.58-1.897 1.104l-2.291-1.287.006-.007Zm-11.794 6.797-4.189-2.358v28.08l2.292 1.287c.846.475 1.897-.133 1.897-1.103V56.331v.006Z" clip-rule="evenodd"/><path fill-rule="evenodd" d="M74.958 44.977V31.04a2.54 2.54 0 0 0-1.292-2.206L29.22 3.83V1.268c0-.97 1.05-1.578 1.896-1.103l46.74 26.299a2.527 2.527 0 0 1 1.292 2.206v16.49c0 .97-1.05 1.58-1.897 1.104l-2.292-1.287ZM62.451 60.345l-3.475-1.94V81l2.227 1.242c.847.476 1.897-.14 1.897-1.103V61.448c0-.456-.248-.881-.65-1.103Z" clip-rule="evenodd"/><path d="M63.133 37.723v16.49c0 .97-1.05 1.58-1.896 1.104l-13.138-7.393a.633.633 0 0 0-.948.552v38.256c0 .97-1.05 1.578-1.897 1.103l-14.767-8.312a2.527 2.527 0 0 1-1.292-2.206V38.034a1.26 1.26 0 0 0-.65-1.103l-14.054-7.906a2.527 2.527 0 0 1-1.292-2.207v-16.49c0-.97 1.05-1.579 1.897-1.103l46.739 26.298a2.527 2.527 0 0 1 1.292 2.206l.006-.006Z"/></g><defs><clipPath id="a"><path fill="#fff" d="M0 0h88v88H0z"/></clipPath></defs></svg>